<?xml version="1.0" encoding="utf-8"?>
<svg id="master-artboard" viewBox="0 0 1400 980" xmlns="http://www.w3.org/2000/svg" width="1400px" height="980px" version="1.1" style="shape-rendering:geometricPrecision; text-rendering:geometricPrecision; image-rendering:optimizeQuality; fill-rule:evenodd; clip-rule:evenodd"><g transform="matrix(1, 0, 0, 1, 0, 0.000056407146530546015)"><path d="M 0 0 H 1400 V 980 H 0 V 0 Z" class="st0" style="fill: rgb(255, 255, 255);"/><path d="M 242.100006 736.099976 H 1158.000031 V 750.899976 H 242.100006 V 736.099976 Z" class="st1" style="fill: rgb(62, 62, 73);"/><g>
	<g>
		<path class="st2" d="M702.4,421.1c-17.9-29.9-18.8-66.4-12.4-79c6.5-12.6,26.4-3.7,26.4-3.7c19.2-19.2,22.1-32.1,48.6-30.6&#10;&#9;&#9;&#9;s62.7,17.2,81.7,10.5c27.4-9.7,22.2,32.6,6,44.2s-50,6.2-63,4.5S712.2,435.5,702.4,421.1z" style="fill: rgb(111, 46, 46);"/>
		<path class="st2" d="M858.2,413.5c-0.8-23.6-3.6-52.7-8.8-57.9c-5.2-5.2-19.3,9.4-22,15.1C824.7,376.4,823.2,427.7,858.2,413.5z" style="fill: rgb(111, 46, 46);"/>
		<path class="st3" d="M848.4,663.3H708.9v-80.1c0-14.8,12-26.8,26.8-26.8h85.9c14.8,0,26.8,12,26.8,26.8V663.3z" style="fill: rgb(0, 147, 242);"/>
		<g>
			<path class="st4" d="M778.6,587.8c16.8,0,30.5-13.7,30.5-30.5v-0.8h-61.1v0.8C748.1,574.1,761.8,587.8,778.6,587.8z" style="fill: rgb(232, 232, 247);"/>
		</g>
		<path class="st5" d="M778.6,582.8L778.6,582.8c-14.1,0-25.5-11.4-25.5-25.5v-42.1h51.1v42.1C804.2,571.4,792.7,582.8,778.6,582.8z&#10;&#9;&#9;&#9;" style="fill: rgb(255, 185, 138);"/>
		<g>
			<path class="st5" d="M722.1,432c-2.2,12.4-13,20.8-24,18.8c-13.7-2.4-17.4-18-15.2-30.4c2.7-15.3,14.8-15.9,23.2-14.4&#10;&#9;&#9;&#9;&#9;C717.2,408,724.3,419.6,722.1,432z" style="fill: rgb(255, 185, 138);"/>
			<path class="st5" d="M835.1,432c2.2,12.4,13,20.8,24,18.8c13.7-2.4,17.4-18,15.2-30.4c-2.7-15.3-14.8-15.9-23.2-14.4&#10;&#9;&#9;&#9;&#9;C840.1,408,832.9,419.6,835.1,432z" style="fill: rgb(255, 185, 138);"/>
		</g>
		<path class="st6" d="M857,458.1c0,43.3-35.1,78.4-78.4,78.4c-43.3,0-78.4-35.1-78.4-78.4c0-76.6,29.5-124.4,78.4-124.4&#10;&#9;&#9;&#9;S857,381.5,857,458.1z" style="fill: rgb(255, 210, 177);"/>
		<path class="st2" d="M852.9,362.5c-29.1,20-100.6,12.8-114.4,0.7c-3.9,23.9-23.6,37.7-36.1,32.5c1.5-19.1,20.2-53.5,50.4-64.2&#10;&#9;&#9;&#9;S832.6,330.4,852.9,362.5z" style="fill: rgb(111, 46, 46);"/>
	</g>
	<g>
		<path class="st7" d="M892.1,726.1h-227V612.3c0-5.5,4.5-10,10-10h207c5.5,0,10,4.5,10,10V726.1z" style="fill: rgb(227, 227, 229);"/>
		<path class="st8" d="M886.5,736.1H670.8c-3.1,0-5.7-2.5-5.7-5.7v-4.3h227v4.3C892.1,733.6,889.6,736.1,886.5,736.1z" style="fill: rgb(202, 204, 219);"/>
		<path d="M 796.799976 664.200012 A 18.200001 18.200001 0 0 1 778.599976 682.400013 A 18.200001 18.200001 0 0 1 760.399975 664.200012 A 18.200001 18.200001 0 0 1 778.599976 646.000011 A 18.200001 18.200001 0 0 1 796.799976 664.200012 Z" class="st0" style="fill: rgb(255, 255, 255);"/>
	</g>
</g><g>
	<g>
		
			<path d="M 993.200012 668.099976 H 1001.600012 V 687.199976 H 993.200012 V 668.099976 Z" transform="matrix(0.7071 -0.7071 0.7071 0.7071 -187.0377 903.7548)" class="st1" style="fill: rgb(62, 62, 73);"/>
		<path d="M 1003.5 666 L 985.7999877929688 683.7000122070312 L 918.7999877929688 626.7000122070312 L 946.5 599 Z" class="st7" style="fill: rgb(227, 227, 229);"/>
		
			<path d="M 939.499989 596.099976 A 23.700001 23.700001 0 0 1 915.799988 619.799976 A 23.700001 23.700001 0 0 1 892.099987 596.099976 A 23.700001 23.700001 0 0 1 915.799988 572.399975 A 23.700001 23.700001 0 0 1 939.499989 596.099976 Z" transform="matrix(0.7071 -0.7071 0.7071 0.7071 -153.2529 822.1909)" class="st3" style="fill: rgb(0, 147, 242);"/>
		
			<path d="M 909.799988 605 H 948.999989 V 614.2 H 909.799988 V 605 Z" transform="matrix(0.7071 -0.7071 0.7071 0.7071 -158.8544 835.7142)" class="st8" style="fill: rgb(202, 204, 219);"/>
	</g>
	<path d="M 941.299988 646 H 957.899988 V 736.099998 H 941.299988 V 646 Z" class="st8" style="fill: rgb(202, 204, 219);"/>
	<path class="st9" d="M951.2,661.6l-13.5-13.5c-1.2-1.2-1.2-3.2,0-4.5l25.7-25.7c1.2-1.2,3.2-1.2,4.5,0l13.5,13.5&#10;&#9;&#9;c1.2,1.2,1.2,3.2,0,4.5l-25.7,25.7C954.4,662.8,952.4,662.8,951.2,661.6z" style="fill: rgb(124, 124, 147);"/>
</g><g>
	<g>
		<path class="st10" d="M509.6,695.4H406.7c-10.3,0-18.6,8.3-18.6,18.6s8.3,18.6,18.6,18.6h102.8V695.4z" style="fill: rgb(211, 211, 239);"/>
		<path class="st4" d="M389.1,708.1c-0.6,1.9-1,3.9-1,5.9c0,10.3,8.3,18.6,18.6,18.6h102.8v-24.5H389.1z" style="fill: rgb(232, 232, 247);"/>
		<g>
			<path class="st11" d="M523.2,736.1H406.7c-12.2,0-22.1-9.9-22.1-22.1s9.9-22.1,22.1-22.1h116.4v7H406.7&#10;&#9;&#9;&#9;&#9;c-8.3,0-15.1,6.8-15.1,15.1s6.8,15.1,15.1,15.1h116.4V736.1z" style="fill: rgb(255, 119, 116);"/>
		</g>
	</g>
	<g>
		<path class="st10" d="M509.6,607.1H406.7c-10.3,0-18.6,8.3-18.6,18.6s8.3,18.6,18.6,18.6h102.8V607.1z" style="fill: rgb(211, 211, 239);"/>
		<path class="st4" d="M389.1,619.7c-0.6,1.9-1,3.9-1,5.9c0,10.3,8.3,18.6,18.6,18.6h102.8v-24.5H389.1z" style="fill: rgb(232, 232, 247);"/>
		<g>
			<path class="st3" d="M523.2,647.8H406.7c-12.2,0-22.1-9.9-22.1-22.1s9.9-22.1,22.1-22.1h116.4v7H406.7c-8.3,0-15.1,6.8-15.1,15.1&#10;&#9;&#9;&#9;&#9;s6.8,15.1,15.1,15.1h116.4V647.8z" style="fill: rgb(0, 147, 242);"/>
		</g>
	</g>
	<g>
		<path class="st10" d="M398.2,651.3h102.8c10.3,0,18.6,8.3,18.6,18.6s-8.3,18.6-18.6,18.6H398.2V651.3z" style="fill: rgb(211, 211, 239);"/>
		<path class="st4" d="M518.7,663.9c0.6,1.9,1,3.9,1,5.9c0,10.3-8.3,18.6-18.6,18.6H398.2v-24.5H518.7z" style="fill: rgb(232, 232, 247);"/>
		<g>
			<path class="st12" d="M384.7,691.9h116.4c12.2,0,22.1-9.9,22.1-22.1s-9.9-22.1-22.1-22.1H384.7v7h116.4c8.3,0,15.1,6.8,15.1,15.1&#10;&#9;&#9;&#9;&#9;s-6.8,15.1-15.1,15.1H384.7V691.9z" style="fill: rgb(124, 211, 0);"/>
		</g>
	</g>
</g><g>
	<path class="st8" d="M1033.6,671.9h-10.4v-6.7c0-1.4,1.2-2.6,2.6-2.6h5.2c1.4,0,2.6,1.2,2.6,2.6V671.9z" style="fill: rgb(202, 204, 219);"/>
	<path d="M 1085.800048828125 672.7000122070312 L 1042.4000244140625 672.7000122070312 L 1049.4000244140625 656.9000244140625 L 1078.800048828125 656.9000244140625 Z" class="st3" style="fill: rgb(0, 147, 242);"/>
	<path d="M 1107.799975 670.900024 A 7.2 7.2 0 0 1 1100.599976 678.100024 A 7.2 7.2 0 0 1 1093.399976 670.900024 A 7.2 7.2 0 0 1 1100.599976 663.700025 A 7.2 7.2 0 0 1 1107.799975 670.900024 Z" class="st8" style="fill: rgb(202, 204, 219);"/>
	<path class="st4" d="M1113.7,736.1h-96.3c-4.2,0-7.6-3.4-7.6-7.6v-52.8c0-4.2,3.4-7.6,7.6-7.6h96.3c4.2,0,7.6,3.4,7.6,7.6v52.8&#10;&#9;&#9;C1121.3,732.7,1117.9,736.1,1113.7,736.1z" style="fill: rgb(232, 232, 247);"/>
	<path d="M 1009.700012 679.900024 H 1121.200012 V 724.400024 H 1009.700012 V 679.900024 Z" class="st3" style="fill: rgb(0, 147, 242);"/>
	<path d="M 1092.1 706 A 26.6 26.6 0 0 1 1065.5 732.6 A 26.6 26.6 0 0 1 1038.9 706 A 26.6 26.6 0 0 1 1065.5 679.4 A 26.6 26.6 0 0 1 1092.1 706 Z" class="st8" style="fill: rgb(202, 204, 219);"/>
	<path d="M 1084 706 A 18.5 18.5 0 0 1 1065.5 724.5 A 18.5 18.5 0 0 1 1047 706 A 18.5 18.5 0 0 1 1065.5 687.5 A 18.5 18.5 0 0 1 1084 706 Z" class="st0" style="fill: rgb(255, 255, 255);"/>
	<path d="M 1075.7 706 A 10.2 10.2 0 0 1 1065.5 716.2 A 10.2 10.2 0 0 1 1055.3 706 A 10.2 10.2 0 0 1 1065.5 695.8 A 10.2 10.2 0 0 1 1075.7 706 Z" class="st9" style="fill: rgb(124, 124, 147);"/>
</g><g>
	<g>
		<path class="st12" d="M625.3,736.5h-24.7c-8.1,0-14.7-6.6-14.7-14.7v-39.5H640v39.5C640,730,633.4,736.5,625.3,736.5z" style="fill: rgb(124, 211, 0);"/>
	</g>
	<g>
		<path class="st12" d="M639.5,723.9h-10.9v-6.7h10.9c5.9,0,10.8-4.8,10.8-10.8c0-5.9-4.8-10.8-10.8-10.8h-10.9v-6.7h10.9&#10;&#9;&#9;&#9;c9.6,0,17.5,7.8,17.5,17.5S649.1,723.9,639.5,723.9z" style="fill: rgb(124, 211, 0);"/>
	</g>
</g><g>
	<g>
		
			<path d="M 533 691.900024 H 586.200001 V 702.500025 H 533 V 691.900024 Z" transform="matrix(6.123234e-17 -1 1 6.123234e-17 -137.6288 1256.7253)" class="st11" style="fill: rgb(255, 119, 116);"/>
		
			<path d="M 556.5 721.5 H 562.6 V 732.1 H 556.5 V 721.5 Z" transform="matrix(6.123234e-17 -1 1 6.123234e-17 -167.2413 1286.338)" class="st9" style="fill: rgb(124, 124, 147);"/>
		<path class="st4" d="M564.9,730.7v-0.9h-10.6v0.9c0,2.9,2.4,5.3,5.3,5.3l0,0C562.5,736,564.9,733.7,564.9,730.7z" style="fill: rgb(232, 232, 247);"/>
		<path d="M 554.2000122070312 670.5999755859375 L 559.5 659.2999877929688 L 564.9000244140625 670.5999755859375 Z" class="st13" style="fill: rgb(255, 223, 151);"/>
		<path d="M 557.7000122070312 663.2000122070312 L 561.4000244140625 663.2000122070312 L 559.5 659.2999877929688 Z" class="st9" style="fill: rgb(124, 124, 147);"/>
	</g>
	<g>
		
			<path d="M 515.099976 691.900024 H 568.299976 V 702.500025 H 515.099976 V 691.900024 Z" transform="matrix(6.123234e-17 -1 1 6.123234e-17 -155.5181 1238.8361)" class="st3" style="fill: rgb(0, 147, 242);"/>
		
			<path d="M 538.599976 721.5 H 544.699975 V 732.1 H 538.599976 V 721.5 Z" transform="matrix(6.123234e-17 -1 1 6.123234e-17 -185.1307 1268.4486)" class="st9" style="fill: rgb(124, 124, 147);"/>
		<path class="st4" d="M547,730.7v-0.9h-10.6v0.9c0,2.9,2.4,5.3,5.3,5.3l0,0C544.6,736,547,733.7,547,730.7z" style="fill: rgb(232, 232, 247);"/>
		<path d="M 536.2999877929688 670.5999755859375 L 541.7000122070312 659.2999877929688 L 547 670.5999755859375 Z" class="st13" style="fill: rgb(255, 223, 151);"/>
		<path d="M 539.7999877929688 663.2000122070312 L 543.5 663.2000122070312 L 541.7000122070312 659.2999877929688 Z" class="st9" style="fill: rgb(124, 124, 147);"/>
	</g>
	<path d="M 523.200012 680.299988 H 574.600014 V 686.299988 H 523.200012 V 680.299988 Z" class="st14" style="fill: rgb(96, 96, 96);"/>
	<path class="st15" d="M570.8,683.3v46.5c0,3.8-3,6.8-6.8,6.8h-30.3c-3.8,0-6.8-3-6.8-6.8v-46.5" style="fill: none; stroke: rgb(96, 96, 96); stroke-miterlimit: 10;"/>
</g><g>
	<g>
		<path d="M 309.600006 620.099976 H 314.600006 V 709.699974 H 309.600006 V 620.099976 Z" class="st16" style="fill: rgb(26, 209, 0);"/>
	</g>
	<path d="M 287.700012 701.700012 H 336.400013 V 736.600014 H 287.700012 V 701.700012 Z" class="st17" style="fill: rgb(252, 195, 50);"/>
	<path d="M 282.299988 692.900024 H 341.999989 V 702.800024 H 282.299988 V 692.900024 Z" class="st18" style="fill: rgb(255, 211, 89);"/>
	<g>
		<g>
			
				<path d="M 314.400012 627.799988 A 15.2 6.9 0 0 1 299.200012 634.699988 A 15.2 6.9 0 0 1 284.000012 627.799988 A 15.2 6.9 0 0 1 299.200012 620.899988 A 15.2 6.9 0 0 1 314.400012 627.799988 Z" transform="matrix(0.7071 -0.7071 0.7071 0.7071 -356.2714 395.4771)" class="st4" style="fill: rgb(232, 232, 247);"/>
			
				<path d="M 340.2 602.099976 A 15.2 6.9 0 0 1 325 608.999976 A 15.2 6.9 0 0 1 309.8 602.099976 A 15.2 6.9 0 0 1 325 595.199975 A 15.2 6.9 0 0 1 340.2 602.099976 Z" transform="matrix(0.7071 -0.7071 0.7071 0.7071 -330.5494 406.1315)" class="st4" style="fill: rgb(232, 232, 247);"/>
		</g>
		<g>
			<path d="M 309.099994 614.900024 A 15.2 6.9 0 0 1 293.899994 621.800025 A 15.2 6.9 0 0 1 278.699994 614.900024 A 15.2 6.9 0 0 1 293.899994 608.000024 A 15.2 6.9 0 0 1 309.099994 614.900024 Z" class="st4" style="fill: rgb(232, 232, 247);"/>
			<path d="M 345.499988 614.900024 A 15.2 6.9 0 0 1 330.299988 621.800025 A 15.2 6.9 0 0 1 315.099988 614.900024 A 15.2 6.9 0 0 1 330.299988 608.000024 A 15.2 6.9 0 0 1 345.499988 614.900024 Z" class="st4" style="fill: rgb(232, 232, 247);"/>
		</g>
		<g>
			
				<path d="M 306.100012 602.099976 A 6.9 15.2 0 0 1 299.200012 617.299975 A 6.9 15.2 0 0 1 292.300012 602.099976 A 6.9 15.2 0 0 1 299.200012 586.899976 A 6.9 15.2 0 0 1 306.100012 602.099976 Z" transform="matrix(0.7071 -0.7071 0.7071 0.7071 -338.0832 387.9433)" class="st4" style="fill: rgb(232, 232, 247);"/>
			
				<path d="M 331.9 627.799988 A 6.9 15.2 0 0 1 325 642.999988 A 6.9 15.2 0 0 1 318.1 627.799988 A 6.9 15.2 0 0 1 325 612.599988 A 6.9 15.2 0 0 1 331.9 627.799988 Z" transform="matrix(0.7071 -0.7071 0.7071 0.7071 -348.7376 413.6653)" class="st4" style="fill: rgb(232, 232, 247);"/>
		</g>
		<g>
			<path d="M 319.000006 596.700012 A 6.9 15.2 0 0 1 312.100006 611.900012 A 6.9 15.2 0 0 1 305.200006 596.700012 A 6.9 15.2 0 0 1 312.100006 581.500012 A 6.9 15.2 0 0 1 319.000006 596.700012 Z" class="st4" style="fill: rgb(232, 232, 247);"/>
			<path d="M 319.000006 633.099976 A 6.9 15.2 0 0 1 312.100006 648.299975 A 6.9 15.2 0 0 1 305.200006 633.099976 A 6.9 15.2 0 0 1 312.100006 617.899976 A 6.9 15.2 0 0 1 319.000006 633.099976 Z" class="st4" style="fill: rgb(232, 232, 247);"/>
		</g>
	</g>
	<path d="M 321.900006 614.900024 A 9.8 9.8 0 0 1 312.100006 624.700025 A 9.8 9.8 0 0 1 302.300006 614.900024 A 9.8 9.8 0 0 1 312.100006 605.100024 A 9.8 9.8 0 0 1 321.900006 614.900024 Z" class="st18" style="fill: rgb(255, 211, 89);"/>
	<path class="st19" d="M305.7,655.4c7.4,7.4,4.9,22,4.9,22s-14.6,2.5-22-4.9c-7.4-7.4-4.9-22-4.9-22S298.3,647.9,305.7,655.4z" style="fill: rgb(148, 209, 0);"/>
</g><g>
	<path d="M 557.699997 344.799988 A 85.199997 85.199997 0 0 1 472.5 429.999985 A 85.199997 85.199997 0 0 1 387.300003 344.799988 A 85.199997 85.199997 0 0 1 472.5 259.599991 A 85.199997 85.199997 0 0 1 557.699997 344.799988 Z" class="st11" style="fill: rgb(255, 119, 116);"/>
	<path d="M 549.400002 344.799988 A 76.900002 76.900002 0 0 1 472.5 421.699989 A 76.900002 76.900002 0 0 1 395.599998 344.799988 A 76.900002 76.900002 0 0 1 472.5 267.899986 A 76.900002 76.900002 0 0 1 549.400002 344.799988 Z" class="st4" style="fill: rgb(232, 232, 247);"/>
	<g>
		<g>
			<path d="M 434 395.100006 H 450.6 V 399.500006 H 434 V 395.100006 Z" transform="matrix(0.5 -0.866 0.866 0.5 -122.8499 581.6971)" class="st9" style="fill: rgb(124, 124, 147);"/>
			<path d="M 494.399994 290.600006 H 510.999994 V 295.000006 H 494.399994 V 290.600006 Z" transform="matrix(0.5 -0.866 0.866 0.5 -2.1852 581.6971)" class="st9" style="fill: rgb(124, 124, 147);"/>
		</g>
		<g>
			<path d="M 411.899994 373 H 428.499994 V 377.4 H 411.899994 V 373 Z" transform="matrix(0.866 -0.5 0.5 0.866 -131.2746 260.3896)" class="st9" style="fill: rgb(124, 124, 147);"/>
			<path d="M 516.400024 312.600006 H 533.000025 V 317.000006 H 516.400024 V 312.600006 Z" transform="matrix(0.866 -0.5 0.5 0.866 -87.1082 304.5559)" class="st9" style="fill: rgb(124, 124, 147);"/>
		</g>
		<g>
			<path d="M 403.899994 342.799988 H 420.499994 V 347.199988 H 403.899994 V 342.799988 Z" class="st9" style="fill: rgb(124, 124, 147);"/>
			<path d="M 524.5 342.799988 H 541.1 V 347.199988 H 524.5 V 342.799988 Z" class="st9" style="fill: rgb(124, 124, 147);"/>
		</g>
		<g>
			<path d="M 418.100006 306.5 H 422.500006 V 323.1 H 418.100006 V 306.5 Z" transform="matrix(0.5 -0.866 0.866 0.5 -62.5176 521.3647)" class="st9" style="fill: rgb(124, 124, 147);"/>
			<path d="M 522.599976 366.799988 H 526.999976 V 383.399988 H 522.599976 V 366.799988 Z" transform="matrix(0.5 -0.866 0.866 0.5 -62.5176 642.0294)" class="st9" style="fill: rgb(124, 124, 147);"/>
		</g>
		<g>
			<path d="M 440.200012 284.399994 H 444.600012 V 300.999994 H 440.200012 V 284.399994 Z" transform="matrix(0.866 -0.5 0.5 0.866 -87.1082 260.3896)" class="st9" style="fill: rgb(124, 124, 147);"/>
			<path d="M 500.5 388.899994 H 504.9 V 405.499994 H 500.5 V 388.899994 Z" transform="matrix(0.866 -0.5 0.5 0.866 -131.2746 304.5559)" class="st9" style="fill: rgb(124, 124, 147);"/>
		</g>
		<g>
			<path d="M 470.299988 276.299988 H 474.699988 V 292.899988 H 470.299988 V 276.299988 Z" class="st9" style="fill: rgb(124, 124, 147);"/>
			<path d="M 470.299988 397 H 474.699988 V 413.6 H 470.299988 V 397 Z" class="st9" style="fill: rgb(124, 124, 147);"/>
		</g>
	</g>
	<g>
		<path class="st11" d="M488.8,349.7h-21v-40.9c0-2.6,2.1-4.7,4.7-4.7h0c2.6,0,4.7,2.1,4.7,4.7v31.5h11.6c2.6,0,4.7,2.1,4.7,4.7l0,0&#10;&#9;&#9;&#9;C493.5,347.6,491.4,349.7,488.8,349.7z" style="fill: rgb(255, 119, 116);"/>
	</g>
	<path d="M 480.4 344.799988 A 7.9 7.9 0 0 1 472.5 352.699988 A 7.9 7.9 0 0 1 464.6 344.799988 A 7.9 7.9 0 0 1 472.5 336.899988 A 7.9 7.9 0 0 1 480.4 344.799988 Z" class="st3" style="fill: rgb(0, 147, 242);"/>
</g><g>
	<path d="M 987.5 401.29998779296875 L 978.0999755859375 410.6000061035156 L 970.4000244140625 402.8999938964844 L 966.9000244140625 406.5 L 974.5999755859375 414.20001220703125 L 966.9000244140625 421.8999938964844 L 970.4000244140625 425.3999938964844 L 978.0999755859375 417.70001220703125 L 986.4000244140625 426 L 989.9000244140625 422.3999938964844 L 981.7000122070312 414.20001220703125 L 991 404.79998779296875 Z" class="st20" style="fill: rgb(128, 210, 255);"/>
	<path d="M 1050.800049 587.799988 H 1084.100048 V 592.799988 H 1050.800049 V 587.799988 Z" class="st20" style="fill: rgb(128, 210, 255);"/>
	<path class="st20" d="M735.7,242.1c0-2.4,0.9-3.5,2.1-5c1.4-1.8,3.2-3.9,3.2-8.1h-5c0,2.4-0.9,3.5-2.1,5c-1.4,1.8-3.2,3.9-3.2,8.1&#10;&#9;&#9;c0,4.1,1.8,6.3,3.2,8.1c1.2,1.5,2.1,2.6,2.1,5h5c0-4.1-1.7-6.3-3.2-8.1C736.5,245.6,735.7,244.5,735.7,242.1z" style="fill: rgb(128, 210, 255);"/>
	<path class="st20" d="M582.9,268.1c-3-3-5.5-3.7-7.7-4.3c-1.9-0.5-3.4-0.9-5.5-3.1c-2.1-2.1-2.5-3.6-3.1-5.5&#10;&#9;&#9;c-0.6-2.2-1.3-4.7-4.3-7.7l-3.5,3.5c2.1,2.1,2.5,3.6,3.1,5.5c0.6,2.2,1.3,4.7,4.3,7.7c3,3,5.5,3.7,7.7,4.3c1.9,0.5,3.4,0.9,5.5,3.1&#10;&#9;&#9;L582.9,268.1z" style="fill: rgb(128, 210, 255);"/>
	<path class="st20" d="M591.8,447.7c-2.4,0.7-5.2,1.4-8.5,4.8c-3.4,3.4-4.1,6.1-4.8,8.5c-0.6,2.2-1.1,3.9-3.5,6.3l3.5,3.5&#10;&#9;&#9;c3.4-3.4,4.1-6.1,4.8-8.5c0.6-2.2,1.1-3.9,3.5-6.3c2.4-2.4,4.2-2.9,6.3-3.5c2.4-0.7,5.2-1.4,8.5-4.8l-3.5-3.5&#10;&#9;&#9;C595.7,446.6,594,447.1,591.8,447.7z" style="fill: rgb(128, 210, 255);"/>
	<path d="M 425.700012 502.600006 H 459.000011 V 507.600006 H 425.700012 V 502.600006 Z" class="st21" style="fill: rgb(204, 255, 123);"/>
	<path d="M 956.2999877929688 339.3999938964844 L 952.7999877929688 335.8999938964844 L 950.4000244140625 338.29998779296875 L 946.2999877929688 334.29998779296875 L 942.7999877929688 337.79998779296875 L 946.9000244140625 341.79998779296875 L 940.9000244140625 347.79998779296875 L 944.4000244140625 351.3999938964844 L 950.4000244140625 345.3999938964844 L 954.7999877929688 349.79998779296875 L 958.4000244140625 346.29998779296875 L 953.9000244140625 341.79998779296875 Z" class="st21" style="fill: rgb(204, 255, 123);"/>
	<path class="st21" d="M624.9,530.5c0-2.4,0.9-3.5,2.1-5c1.4-1.8,3.2-3.9,3.2-8.1h-5c0,2.4-0.9,3.5-2.1,5c-1.4,1.8-3.2,3.9-3.2,8.1&#10;&#9;&#9;c0,4.1,1.8,6.3,3.2,8.1c1.2,1.5,2.1,2.6,2.1,5h5c0-4.1-1.7-6.3-3.2-8.1C625.8,534,624.9,532.9,624.9,530.5z" style="fill: rgb(204, 255, 123);"/>
	<path class="st21" d="M1067.4,470.9c-3-3-5.5-3.7-7.7-4.3c-1.9-0.5-3.4-0.9-5.5-3.1c-2.1-2.1-2.5-3.6-3.1-5.5&#10;&#9;&#9;c-0.6-2.2-1.3-4.7-4.3-7.7l-3.5,3.5c2.1,2.1,2.5,3.6,3.1,5.5c0.6,2.2,1.3,4.7,4.3,7.7c3,3,5.5,3.7,7.7,4.3c1.9,0.5,3.4,0.9,5.5,3.1&#10;&#9;&#9;L1067.4,470.9z" style="fill: rgb(204, 255, 123);"/>
	<path d="M 305.200012 423.700012 H 338.500011 V 428.700012 H 305.200012 V 423.700012 Z" class="st22" style="fill: rgb(255, 179, 179);"/>
	<path d="M 341.20001220703125 294.5 L 336.20001220703125 294.5 L 336.20001220703125 305.20001220703125 L 324.6000061035156 305.20001220703125 L 324.6000061035156 310.20001220703125 L 336.20001220703125 310.20001220703125 L 336.20001220703125 320.8999938964844 L 341.20001220703125 320.8999938964844 L 341.20001220703125 310.20001220703125 L 352.5 310.20001220703125 L 352.5 305.20001220703125 L 341.20001220703125 305.20001220703125 Z" class="st22" style="fill: rgb(255, 179, 179);"/>
	<path d="M 654.5 257.299988 H 659.5 V 283.399988 H 654.5 V 257.299988 Z" class="st22" style="fill: rgb(255, 179, 179);"/>
	<path d="M 635.2999877929688 362 L 631.7999877929688 358.3999938964844 L 629.4000244140625 360.8999938964844 L 625.2999877929688 356.79998779296875 L 621.7999877929688 360.29998779296875 L 625.7999877929688 364.3999938964844 L 619.9000244140625 370.3999938964844 L 623.4000244140625 373.8999938964844 L 629.4000244140625 367.8999938964844 L 633.7999877929688 372.3999938964844 L 637.4000244140625 368.8999938964844 L 632.9000244140625 364.3999938964844 Z" class="st22" style="fill: rgb(255, 179, 179);"/>
	<path class="st22" d="M1033.6,376c-3.3,0-4.8-1.2-6.8-2.8c-2.2-1.7-4.9-3.9-9.9-3.9v5c3.3,0,4.8,1.2,6.8,2.8&#10;&#9;&#9;c2.2,1.7,4.9,3.9,9.9,3.9s7.7-2.2,9.9-3.9c1.9-1.6,3.5-2.8,6.8-2.8v-5c-5,0-7.7,2.2-9.9,3.9C1038.4,374.8,1036.9,376,1033.6,376z" style="fill: rgb(255, 179, 179);"/>
	<path class="st22" d="M983.9,267.2c0-2.4,0.9-3.5,2.1-5c1.4-1.8,3.2-3.9,3.2-8.1h-5c0,2.4-0.9,3.5-2.1,5c-1.4,1.8-3.2,3.9-3.2,8.1&#10;&#9;&#9;c0,4.1,1.8,6.3,3.2,8.1c1.2,1.5,2.1,2.6,2.1,5h5c0-4.1-1.7-6.3-3.2-8.1C984.8,270.7,983.9,269.6,983.9,267.2z" style="fill: rgb(255, 179, 179);"/>
	<path class="st22" d="M916.3,516.7c-3-3-5.5-3.7-7.7-4.3c-1.9-0.5-3.4-0.9-5.5-3.1c-2.1-2.1-2.5-3.6-3.1-5.5&#10;&#9;&#9;c-0.6-2.2-1.3-4.7-4.3-7.7l-3.5,3.5c2.1,2.1,2.5,3.6,3.1,5.5c0.6,2.2,1.3,4.7,4.3,7.7c3,3,5.5,3.7,7.7,4.3c1.9,0.5,3.4,0.9,5.5,3.1&#10;&#9;&#9;L916.3,516.7z" style="fill: rgb(255, 179, 179);"/>
	<path d="M 354 492.79998779296875 L 344.70001220703125 502.1000061035156 L 337 494.3999938964844 L 333.3999938964844 498 L 341.1000061035156 505.70001220703125 L 333.3999938964844 513.4000244140625 L 337 516.9000244140625 L 344.70001220703125 509.20001220703125 L 352.8999938964844 517.5 L 356.5 513.9000244140625 L 348.20001220703125 505.70001220703125 L 357.5 496.29998779296875 Z" class="st23" style="fill: rgb(255, 229, 164);"/>
	<path d="M 972.7999877929688 501.8999938964844 L 967.7999877929688 501.8999938964844 L 967.7999877929688 512.5999755859375 L 956.0999755859375 512.5999755859375 L 956.0999755859375 517.5999755859375 L 967.7999877929688 517.5999755859375 L 967.7999877929688 528.2999877929688 L 972.7999877929688 528.2999877929688 L 972.7999877929688 517.5999755859375 L 984 517.5999755859375 L 984 512.5999755859375 L 972.7999877929688 512.5999755859375 Z" class="st23" style="fill: rgb(255, 229, 164);"/>
	<path class="st23" d="M826.1,252.1c-3.3,0-4.8-1.2-6.8-2.8c-2.2-1.7-4.9-3.9-9.9-3.9v5c3.3,0,4.8,1.2,6.8,2.8&#10;&#9;&#9;c2.2,1.7,4.9,3.9,9.9,3.9s7.7-2.2,9.9-3.9c1.9-1.6,3.5-2.8,6.8-2.8v-5c-5,0-7.7,2.2-9.9,3.9C831,250.9,829.4,252.1,826.1,252.1z" style="fill: rgb(255, 229, 164);"/>
	<path class="st23" d="M544.6,533.7c-2.4,0.7-5.2,1.4-8.5,4.8c-3.4,3.4-4.1,6.1-4.8,8.5c-0.6,2.2-1.1,3.9-3.5,6.3l3.5,3.5&#10;&#9;&#9;c3.4-3.4,4.1-6.1,4.8-8.5c0.6-2.2,1.1-3.9,3.5-6.3c2.4-2.4,4.2-2.9,6.3-3.5c2.4-0.7,5.2-1.4,8.5-4.8l-3.5-3.5&#10;&#9;&#9;C548.6,532.6,546.8,533.1,544.6,533.7z" style="fill: rgb(255, 229, 164);"/>
</g><g>
	<path class="st24" d="M717.7,434.3h-4.6c-0.9,0-1.6-0.7-1.6-1.6v-5.7c0-0.9,0.7-1.6,1.6-1.6h9.8L717.7,434.3z" style="fill: rgb(198, 97, 62);"/>
	<path class="st24" d="M839.5,434.3h4.6c0.9,0,1.6-0.7,1.6-1.6v-5.7c0-0.9-0.7-1.6-1.6-1.6h-9.8L839.5,434.3z" style="fill: rgb(198, 97, 62);"/>
</g><path class="st25" d="M813.4,408.5c-11.6,0-21.5,7.2-25.6,17.3c-2.4-2.2-5.7-3.6-9.2-3.6c-3.5,0-6.8,1.4-9.2,3.6&#10;&#9;c-4.1-10.1-14-17.3-25.6-17.3c-15.2,0-27.5,12.3-27.5,27.5s12.3,27.5,27.5,27.5s27.5-12.3,27.5-27.5c0-4,3.3-7.3,7.3-7.3&#10;&#9;c4,0,7.3,3.3,7.3,7.3c0,15.2,12.3,27.5,27.5,27.5s27.5-12.3,27.5-27.5S828.6,408.5,813.4,408.5z M743.8,457.1c-11.6,0-21-9.4-21-21&#10;&#9;s9.4-21,21-21s21,9.4,21,21S755.4,457.1,743.8,457.1z M813.4,457.1c-11.6,0-21-9.4-21-21s9.4-21,21-21s21,9.4,21,21&#10;&#9;S825,457.1,813.4,457.1z" style="fill: rgb(209, 134, 101);"/></g></svg>